<svg xmlns="http://www.w3.org/2000/svg" viewBox="0 0 500 500"><g id="freepik--background-complete--inject-11"><rect y="382.4" width="500" height="0.25" style="fill:#ebebeb"></rect><rect x="394.36" y="393.85" width="50.9" height="0.25" style="fill:#ebebeb"></rect><rect x="52.46" y="390.89" width="47.21" height="0.25" style="fill:#ebebeb"></rect><rect x="378.81" y="389.21" width="19.19" height="0.25" style="fill:#ebebeb"></rect><rect x="317.14" y="395.84" width="14.08" height="0.25" style="fill:#ebebeb"></rect><rect x="272.79" y="395.84" width="35.44" height="0.25" style="fill:#ebebeb"></rect><rect x="195.22" y="391.62" width="56.99" height="0.25" style="fill:#ebebeb"></rect><path d="M237,337.8H43.92a5.71,5.71,0,0,1-5.71-5.71V60.66A5.71,5.71,0,0,1,43.92,55H237a5.71,5.71,0,0,1,5.71,5.71V332.09A5.71,5.71,0,0,1,237,337.8ZM43.92,55.2a5.47,5.47,0,0,0-5.46,5.46V332.09a5.47,5.47,0,0,0,5.46,5.46H237a5.47,5.47,0,0,0,5.46-5.46V60.66A5.47,5.47,0,0,0,237,55.2Z" style="fill:#ebebeb"></path><path d="M453.31,337.8H260.21a5.72,5.72,0,0,1-5.71-5.71V60.66A5.72,5.72,0,0,1,260.21,55h193.1A5.71,5.71,0,0,1,459,60.66V332.09A5.71,5.71,0,0,1,453.31,337.8ZM260.21,55.2a5.47,5.47,0,0,0-5.46,5.46V332.09a5.47,5.47,0,0,0,5.46,5.46h193.1a5.47,5.47,0,0,0,5.46-5.46V60.66a5.47,5.47,0,0,0-5.46-5.46Z" style="fill:#ebebeb"></path><rect x="52.46" y="96.78" width="127.06" height="285.62" style="fill:#f0f0f0"></rect><rect x="55.14" y="96.78" width="124.38" height="285.62" style="fill:#f5f5f5"></rect><rect x="-19" y="184.98" width="272.66" height="109.22" transform="translate(356.92 122.26) rotate(90)" style="fill:#ebebeb"></rect><path d="M121.69,99.8H133.3a0,0,0,0,1,0,0V170.5a0,0,0,0,1,0,0H121.69a20.33,20.33,0,0,1-20.33-20.33V120.12A20.33,20.33,0,0,1,121.69,99.8Z" transform="translate(252.48 17.82) rotate(90)" style="fill:#fafafa"></path><rect x="84.76" y="282.52" width="65.14" height="87.75" rx="10.35" transform="translate(443.73 209.07) rotate(90)" style="fill:#f0f0f0"></rect><rect x="73.45" y="168" width="38.71" height="113.09" rx="10.35" transform="translate(185.61 449.09) rotate(180)" style="fill:#f0f0f0"></rect><rect x="122.5" y="168" width="38.71" height="113.09" rx="10.35" transform="translate(283.71 449.09) rotate(180)" style="fill:#f0f0f0"></rect><path d="M152.68,227.33a6.49,6.49,0,1,0,6.49-6.49A6.49,6.49,0,0,0,152.68,227.33Z" style="fill:#fff"></path><rect x="34.63" y="238.61" width="272.66" height="1.97" transform="translate(410.54 68.63) rotate(90)" style="fill:#f0f0f0"></rect><rect x="398.09" y="261.16" width="27.59" height="121.24" style="fill:#e6e6e6"></rect><polygon points="415.38 382.4 425.67 382.4 425.67 365.66 404.59 365.66 415.38 382.4" style="fill:#ebebeb"></polygon><rect x="347.44" y="261.16" width="27.59" height="121.24" style="fill:#e6e6e6"></rect><rect x="366.04" y="261.16" width="59.63" height="115.48" style="fill:#ebebeb"></rect><polygon points="376.34 382.4 366.04 382.4 366.04 365.66 387.13 365.66 376.34 382.4" style="fill:#ebebeb"></polygon><rect x="374.03" y="304.19" width="43.66" height="28.9" style="fill:#fafafa"></rect><rect x="374.03" y="339.26" width="43.66" height="28.9" style="fill:#fafafa"></rect><path d="M389.44,301.68h12.83a0,0,0,0,1,0,0v1.7a3.89,3.89,0,0,1-3.89,3.89h-5a3.89,3.89,0,0,1-3.89-3.89v-1.7A0,0,0,0,1,389.44,301.68Z" style="fill:#ebebeb"></path><rect x="374.03" y="269.11" width="43.66" height="28.9" style="fill:#fafafa"></rect><path d="M389.44,266.61h12.83a0,0,0,0,1,0,0v1.7a3.89,3.89,0,0,1-3.89,3.89h-5a3.89,3.89,0,0,1-3.89-3.89v-1.7A0,0,0,0,1,389.44,266.61Z" style="fill:#ebebeb"></path><path d="M389.44,336.76h12.83a0,0,0,0,1,0,0v1.7a3.89,3.89,0,0,1-3.89,3.89h-5a3.89,3.89,0,0,1-3.89-3.89v-1.7A0,0,0,0,1,389.44,336.76Z" style="fill:#ebebeb"></path><polygon points="240.96 382.4 203.47 382.4 204.14 244.59 240.96 257.31 240.96 382.4" style="fill:#ebebeb"></polygon><polygon points="316.74 382.4 208.57 382.4 203.47 236 311.63 236 316.74 382.4" style="fill:#e0e0e0"></polygon><polygon points="324.52 382.4 211.96 382.4 206.86 236 319.41 236 324.52 382.4" style="fill:#f5f5f5"></polygon><path d="M222.9,365.25,219,254.09a6.4,6.4,0,0,1,6.34-6.56h77.28a5.77,5.77,0,0,1,5.82,5.61l3.88,111.17a6.4,6.4,0,0,1-6.35,6.55H228.72A5.77,5.77,0,0,1,222.9,365.25Z" style="fill:#fff"></path><rect x="220.74" y="82.78" width="196.77" height="101.51" style="fill:#e6e6e6"></rect><rect x="222.95" y="82.78" width="199.29" height="101.51" style="fill:#f0f0f0"></rect><rect x="220.74" y="184.3" width="196.77" height="2.32" style="fill:#e6e6e6"></rect><rect x="230.83" y="184.3" width="199.29" height="2.32" style="fill:#f0f0f0"></rect><rect x="278.46" y="40.52" width="88.27" height="186.04" transform="translate(456.13 -189.06) rotate(90)" style="fill:#fafafa"></rect><polygon points="262.11 177.68 280.54 89.41 309.3 89.41 290.87 177.68 262.11 177.68" style="fill:#fff"></polygon><path d="M232.64,171.08a.47.47,0,0,1-.47-.47V93.71a.47.47,0,0,1,.94,0v76.9A.47.47,0,0,1,232.64,171.08Z" style="fill:#f0f0f0"></path><polygon points="297.05 177.68 315.48 89.41 326.69 89.41 308.26 177.68 297.05 177.68" style="fill:#fff"></polygon><rect x="371.06" y="133.12" width="88.27" height="0.84" transform="translate(548.74 -281.66) rotate(90)" style="fill:#e6e6e6"></rect><polygon points="423.8 99.39 227.04 99.39 226.43 91.98 423.19 91.98 423.8 99.39" style="fill:#ebebeb;opacity:0.6000000000000001"></polygon><polygon points="423.8 103.57 227.04 103.57 226.43 96.16 423.19 96.16 423.8 103.57" style="fill:#ebebeb;opacity:0.6000000000000001"></polygon><polygon points="423.8 107.75 227.04 107.75 226.43 100.34 423.19 100.34 423.8 107.75" style="fill:#ebebeb;opacity:0.6000000000000001"></polygon><polygon points="423.8 111.93 227.04 111.93 226.43 104.52 423.19 104.52 423.8 111.93" style="fill:#ebebeb;opacity:0.6000000000000001"></polygon><polygon points="423.8 116.11 227.04 116.11 226.43 108.7 423.19 108.7 423.8 116.11" style="fill:#ebebeb;opacity:0.6000000000000001"></polygon><polygon points="423.8 120.29 227.04 120.29 226.43 112.88 423.19 112.88 423.8 120.29" style="fill:#ebebeb;opacity:0.6000000000000001"></polygon></g><g id="freepik--Shadow--inject-11"><ellipse id="freepik--path--inject-11" cx="250" cy="416.24" rx="193.89" ry="11.32" style="fill:#f5f5f5"></ellipse></g><g id="freepik--Character--inject-11"><path d="M199.66,133c-3.23-6.78-10.41-4.52-9.81-10.3s-5.18-13.82-14-9.39-3.93,14.9-3.93,14.9-4.81,18.25,3.37,24c6.52,4.55,20.62.56,18.48-5.88S202.88,139.78,199.66,133Z" style="fill:#263238"></path><path d="M194.29,151.36a.25.25,0,0,1-.23-.16c-2.32-6.16.82-9.12,3.59-11.73,2.19-2.06,4.08-3.84,3.08-6.85-1.17-3.5-3.65-4.39-5.83-5.18s-4.09-1.48-3.91-4.53a10.24,10.24,0,0,0-4.58-8.75c-1.95-1.23-5.18-2.19-9.5.21a.25.25,0,1,1-.24-.44c3.54-2,7.09-2,10-.19a10.62,10.62,0,0,1,4.81,9.2c-.16,2.68,1.49,3.27,3.58,4s4.88,1.76,6.13,5.49c1.11,3.31-1,5.29-3.2,7.38-2.79,2.62-5.67,5.34-3.47,11.18a.26.26,0,0,1-.15.33Z" style="fill:#263238"></path><path d="M153.47,180.46c-.28.5-.45.78-.68,1.14l-.65,1c-.44.65-.9,1.27-1.37,1.89a40.82,40.82,0,0,1-3.05,3.53,35.87,35.87,0,0,1-7.46,5.87,27.6,27.6,0,0,1-9.21,3.4,25.05,25.05,0,0,1-5,.36c-.83,0-1.65-.06-2.46-.18l-.61-.07-.31,0-.4-.07a10.56,10.56,0,0,1-1.59-.4,16.38,16.38,0,0,1-4.8-2.7,31.1,31.1,0,0,1-3.47-3.26,54.49,54.49,0,0,1-5.35-7c-1.57-2.43-3-4.9-4.32-7.4s-2.52-5-3.61-7.72l4.16-2.11c1.46,2.23,3,4.52,4.56,6.7s3.17,4.36,4.86,6.4a58.73,58.73,0,0,0,5.25,5.68,23,23,0,0,0,2.75,2.2,8.45,8.45,0,0,0,2.47,1.2,1.91,1.91,0,0,0,.43.07H124l.42,0a15.52,15.52,0,0,0,1.67,0,18.89,18.89,0,0,0,3.28-.44,20.78,20.78,0,0,0,6.15-2.59,28,28,0,0,0,5.41-4.5,34.76,34.76,0,0,0,2.37-2.74c.37-.47.72-1,1.06-1.45l.5-.73.4-.62Z" style="fill:#b65b52"></path><path d="M153.7,170.22c-8.41.41-10.48,5.82-10.48,5.82l9.71,14.8s4.15-4.46,5.27-9.45C159.36,176.19,159.41,169.94,153.7,170.22Z" style="fill:#263238"></path><path d="M103.72,168.07l-.45-8-7.8,5.81s1.93,4.12,5.64,5Z" style="fill:#b55b52"></path><polygon points="98.42 153.75 93.4 159.13 95.47 165.88 103.27 160.07 98.42 153.75" style="fill:#b55b52"></polygon><polygon points="198.1 406.5 189.02 407.37 184.39 386.21 193.48 385.34 198.1 406.5" style="fill:#b55b52"></polygon><polygon points="281.58 379.1 274.56 385.21 258.5 371.25 265.52 365.13 281.58 379.1" style="fill:#b55b52"></polygon><path d="M271,383.07l6.28-8.36a.74.74,0,0,1,.95-.23l7.22,3.87a1.45,1.45,0,0,1,.4,2.15c-2.24,2.88-3.46,4.16-6.22,7.84-1.7,2.26-5.14,7.51-7.48,10.63s-5.51,1-4.81-.47c3.15-6.74,3.32-10.69,3.17-13.86A2.43,2.43,0,0,1,271,383.07Z" style="fill:#263238"></path><path d="M187.88,404.63H198.8a.89.89,0,0,1,.86.66l2.38,8.64a1.36,1.36,0,0,1-1.33,1.73c-3.82-.07-5.68-.29-10.49-.29-2.95,0-10.59.31-14.67.31s-4.83-4-3.17-4.4c7.4-1.64,11.67-3.9,14-6.06A2.24,2.24,0,0,1,187.88,404.63Z" style="fill:#263238"></path><polygon points="184.4 386.21 186.78 397.12 196.06 397.12 193.48 385.34 184.4 386.21" style="opacity:0.2"></polygon><polygon points="265.52 365.14 258.5 371.26 266.78 378.45 273.8 372.33 265.52 365.14" style="opacity:0.2"></polygon><path d="M147.32,172s-3.87,2.66,17.94,52.35l36.25-10c-4.35-14.49-6.68-23.53-7.31-55.57A111,111,0,0,0,178.29,161a120.51,120.51,0,0,0-16.46,4.55C154.92,168.1,147.32,172,147.32,172Z" style="fill:#263238"></path><path d="M172,143c.3,5.55,1.73,15.48,6.33,18,0,0,3.63,16.72-9.64,33.68-14-12.3-6.82-29.13-6.82-29.13,5.55-3,4.29-7.35,2.21-11.15Z" style="fill:#b55b52"></path><path d="M178.29,161s3.63,16.72-9.64,33.68c-14-12.3-6.82-29.13-6.82-29.13s2.06,5.17,6.24,6.94C170.74,170.94,176.13,166.06,178.29,161Z" style="fill:#f5f5f5"></path><path d="M169.16,171.75s7.46-2.71,13-.71c.49-3,1.19-9.32-1.16-11a4.91,4.91,0,0,0-2.67.89Z" style="fill:#fff"></path><path d="M167,171.86s-4.89-1.14-9.73,3.64c-.35-3-.12-8,2.3-9.71a7.84,7.84,0,0,1,2.71-.81A24.36,24.36,0,0,0,167,171.86Z" style="fill:#fff"></path><path d="M171.1,144.22a22.92,22.92,0,0,1,.1,9.64c-.46,2.2-2.85,3.81-5.51,4.75a14.42,14.42,0,0,0-1.64-4.26Z" style="opacity:0.2"></path><path d="M156.15,124.16c-7.82,10.74-.08,25,6.62,24.7,5-.19,11.51-6.52,10.7-12.21C172.26,128.12,160.08,118.76,156.15,124.16Z" style="fill:#263238"></path><path d="M179.75,136.48c-1.86,9-2.46,12.83-7.69,16.92-7.87,6.15-18.45,2.15-19.3-7.15-.76-8.37,2.42-21.66,11.77-24.18A12.17,12.17,0,0,1,179.75,136.48Z" style="fill:#b55b52"></path><path d="M172,122.57c-.37,2.64,5,10.06,11,10,2.92,0,3.82-4.48,1-8.53C180.21,118.68,172.58,118.78,172,122.57Z" style="fill:#407BFF"></path><path d="M159.71,124.28c-.65,4.59,9,16.72,19.31,16.55,5.06-.08,6-11.61,2.26-15.94C174,116.42,160.64,117.72,159.71,124.28Z" style="fill:#263238"></path><path d="M176.09,138.22c-3.15.64-1.32,4.9.59,7.06C179.12,143.62,181.07,137.21,176.09,138.22Z" style="fill:#263238"></path><path d="M167.8,128.08c-7.53,3.13-14.92-4.87-17.07-8.41,5.44.78,16.67-6.64,21.29,2.75C175.27,129,167.8,128.08,167.8,128.08Z" style="fill:#263238"></path><path d="M166.12,127.53c-5.12,4.46-13.13.22-15.79-2,4.52-.86,11.42-9.67,17.61-3.6C172.29,126.24,166.12,127.53,166.12,127.53Z" style="fill:#263238"></path><path d="M181.94,143.28a6.87,6.87,0,0,1-3.06,4.15c-2,1.22-3.62-.41-3.55-2.63.06-2,1.19-5,3.46-5.36A2.92,2.92,0,0,1,181.94,143.28Z" style="fill:#b55b52"></path><path d="M165.26,224.3s-3.75,72.76,1.45,100.23c5.41,28.58,15.61,69.42,15.61,69.42l17.26-.84s-6.45-51.81-8-73.9c-2.1-30.44.2-102.26.2-102.26Z" style="fill:#407BFF"></path><path d="M165.26,224.3s-3.75,72.76,1.45,100.23c5.41,28.58,15.61,69.42,15.61,69.42l17.26-.84s-6.45-51.81-8-73.9c-2.1-30.44.2-102.26.2-102.26Z" style="opacity:0.4"></path><path d="M191.13,244.33c-2.53-6.74-4.8-10.45-5.25-3.74-.94,14.2,1.17,30.43,4.85,38.48C190.76,267,190.94,254.75,191.13,244.33Z" style="opacity:0.2"></path><polygon points="200.79 393.95 181.12 394.9 178.79 387.71 200.11 386.04 200.79 393.95" style="fill:#407BFF"></polygon><path d="M174.83,221.65s20.73,59.44,34.87,92.26c11.42,26.51,53.19,63.55,53.19,63.55l9.87-8.19s-29.84-42.22-37.74-60.2c-25.3-57.56-17.79-81.94-33.51-94.8Z" style="fill:#407BFF"></path><path d="M174.83,221.65s20.73,59.44,34.87,92.26c11.42,26.51,53.19,63.55,53.19,63.55l9.87-8.19s-29.84-42.22-37.74-60.2c-25.3-57.56-17.79-81.94-33.51-94.8Z" style="opacity:0.4"></path><polygon points="273.56 369.18 262.51 378.74 257.1 374.75 270.11 363.87 273.56 369.18" style="fill:#407BFF"></polygon><path d="M201.51,212l2.46,2.78c.19.21,0,.55-.46.66l-38,10.52c-.32.09-.63,0-.71-.19l-1.15-3.13c-.08-.22.16-.49.52-.59l36.71-10.15A.66.66,0,0,1,201.51,212Z" style="fill:#407BFF"></path><path d="M197.63,217.45l1-.28c.2,0,.32-.19.27-.31l-1.53-4.06c0-.12-.24-.17-.43-.12l-1,.27c-.19.06-.32.2-.27.32l1.53,4.06C197.23,217.45,197.43,217.5,197.63,217.45Z" style="fill:#407BFF"></path><path d="M197.63,217.45l1-.28c.2,0,.32-.19.27-.31l-1.53-4.06c0-.12-.24-.17-.43-.12l-1,.27c-.19.06-.32.2-.27.32l1.53,4.06C197.23,217.45,197.43,217.5,197.63,217.45Z" style="opacity:0.4"></path><path d="M168.35,225.55l1-.28c.2-.05.32-.19.27-.31l-1.53-4.06c0-.12-.24-.17-.43-.12l-1,.27c-.19.06-.32.2-.27.32l1.53,4.06C168,225.55,168.15,225.6,168.35,225.55Z" style="fill:#407BFF"></path><path d="M168.35,225.55l1-.28c.2-.05.32-.19.27-.31l-1.53-4.06c0-.12-.24-.17-.43-.12l-1,.27c-.19.06-.32.2-.27.32l1.53,4.06C168,225.55,168.15,225.6,168.35,225.55Z" style="opacity:0.4"></path><path d="M183,221.5l1-.28c.2-.05.32-.19.27-.31l-1.53-4.06c0-.12-.24-.17-.43-.12l-1,.27c-.19.06-.32.2-.27.32l1.53,4.06C182.59,221.5,182.79,221.55,183,221.5Z" style="fill:#407BFF"></path><path d="M183,221.5l1-.28c.2-.05.32-.19.27-.31l-1.53-4.06c0-.12-.24-.17-.43-.12l-1,.27c-.19.06-.32.2-.27.32l1.53,4.06C182.59,221.5,182.79,221.55,183,221.5Z" style="opacity:0.4"></path><ellipse cx="164.82" cy="137.24" rx="1.35" ry="0.88" transform="translate(3.08 278.08) rotate(-80.83)" style="fill:#263238"></ellipse><path d="M157.38,136.33c-.1.73-.58,1.28-1.06,1.23s-.78-.71-.68-1.45.59-1.28,1.07-1.22S157.49,135.59,157.38,136.33Z" style="fill:#263238"></path><path d="M156.91,135l-1.69-.72S155.93,135.72,156.91,135Z" style="fill:#263238"></path><path d="M159.4,137.86a20.79,20.79,0,0,1-3.3,4.39,3.16,3.16,0,0,0,2.55.81Z" style="fill:#a02724"></path><path d="M160.73,146.25a.19.19,0,0,1-.1-.21.22.22,0,0,1,.25-.19,6,6,0,0,0,5.07-1.71.22.22,0,0,1,.31,0,.21.21,0,0,1,0,.3,6.35,6.35,0,0,1-5.47,1.86A.11.11,0,0,1,160.73,146.25Z" style="fill:#263238"></path><path d="M169.19,133.91a.36.36,0,0,1-.15-.15,3.37,3.37,0,0,0-2.56-1.79.42.42,0,0,1-.4-.46.45.45,0,0,1,.47-.41,4.22,4.22,0,0,1,3.25,2.22.44.44,0,0,1-.61.59Z" style="fill:#263238"></path><path d="M154,132l-.06,0a.44.44,0,0,1,0-.62,4.42,4.42,0,0,1,3.69-1.58.42.42,0,0,1,.36.49.45.45,0,0,1-.5.38,3.5,3.5,0,0,0-2.9,1.28A.45.45,0,0,1,154,132Z" style="fill:#263238"></path><path d="M197.41,163.65c1.77,2.07,3.77,4.29,5.76,6.35s4,4.12,6.16,6.05a78.74,78.74,0,0,0,13.44,10.16,37.08,37.08,0,0,0,3.55,1.8,11.19,11.19,0,0,0,3.14.88,16,16,0,0,0,7.08-.87,32.55,32.55,0,0,0,7.25-3.58c1.16-.77,2.33-1.57,3.46-2.43s2.25-1.81,3.23-2.68l3.55,3a38,38,0,0,1-3.08,3.7,43.17,43.17,0,0,1-3.44,3.32,36.82,36.82,0,0,1-8.23,5.43A22.37,22.37,0,0,1,228.83,197a18.26,18.26,0,0,1-5.59-1.1,43.6,43.6,0,0,1-4.58-2A76,76,0,0,1,203.1,183c-2.34-2.07-4.62-4.18-6.76-6.42-1.07-1.12-2.13-2.25-3.17-3.41s-2-2.3-3.08-3.6Z" style="fill:#b65b52"></path><path d="M252,184.08l5.24-4.18-6.66-4.55s-3.08,4-2.17,7.73Z" style="fill:#b55b52"></path><polygon points="261.44 175.15 256.53 171.2 250.61 175.35 257.27 179.9 261.44 175.15" style="fill:#b55b52"></polygon><path d="M194.2,158.7c3.91.1,6.28,4,6.28,4l-6.63,15.74s-6.06-3.71-5.72-8.8C188.47,164.39,189.74,158.6,194.2,158.7Z" style="fill:#263238"></path><path d="M268.07,387.53a1.84,1.84,0,0,1-.27-.23.73.73,0,0,1-.23-.71c.27-1.15,3.4-2.35,3.76-2.48a.22.22,0,0,1,.23.05.24.24,0,0,1,0,.24c-.5,1.13-1.51,3.06-2.66,3.29A1.12,1.12,0,0,1,268.07,387.53Zm2.91-2.81c-1.24.51-2.84,1.36-3,2a.3.3,0,0,0,.11.31.81.81,0,0,0,.75.28C269.48,387.14,270.26,386.2,271,384.72Z" style="fill:#407BFF"></path><path d="M267.46,384.5a1.08,1.08,0,0,1-.2-.16.77.77,0,0,1,0-1,1.21,1.21,0,0,1,.8-.57c1.31-.29,3.42,1.26,3.51,1.33a.22.22,0,0,1,.09.2.2.2,0,0,1-.14.17C270.63,384.9,268.36,385.08,267.46,384.5Zm3.4-.29a4.78,4.78,0,0,0-2.76-1,.69.69,0,0,0-.5.36c-.14.24-.08.36,0,.44.42.47,2.24.51,3.33.21Z" style="fill:#407BFF"></path><path d="M183,406.43a3.66,3.66,0,0,1-2.14-.51,1.34,1.34,0,0,1-.55-1.05.62.62,0,0,1,.27-.59c1-.68,4.71,1,5.45,1.36a.22.22,0,0,1,0,.41A14.22,14.22,0,0,1,183,406.43Zm-1.74-1.89a.72.72,0,0,0-.43.1.2.2,0,0,0-.09.2.94.94,0,0,0,.39.73c.64.48,2.15.55,4.1.19A13.41,13.41,0,0,0,181.3,404.54Z" style="fill:#407BFF"></path><path d="M186,406.05h-.09c-1.23-.51-3.72-2.5-3.58-3.53,0-.23.19-.51.75-.58,2.16-.26,3.09,3.69,3.13,3.86a.21.21,0,0,1-.07.21A.19.19,0,0,1,186,406.05Zm-2.72-3.69h-.15c-.23,0-.35.09-.36.2-.08.6,1.63,2.17,2.89,2.86C185.35,404.48,184.57,402.36,183.26,402.36Z" style="fill:#407BFF"></path><path d="M165.22,136l-1.69-.73S164.24,136.74,165.22,136Z" style="fill:#263238"></path></g><g id="freepik--Smartphone--inject-11"><rect x="224.96" y="111.44" width="144.32" height="304.79" rx="14.62" transform="translate(594.23 527.68) rotate(180)" style="fill:#407BFF"></rect><rect x="223.13" y="162.81" width="7.44" height="40.92" rx="2.74" transform="translate(453.69 366.55) rotate(180)" style="fill:#407BFF"></rect><rect x="366.98" y="162.81" width="7.44" height="19.98" rx="2.59" transform="translate(741.4 345.61) rotate(180)" style="fill:#407BFF"></rect><rect x="366.98" y="189.23" width="7.44" height="19.98" rx="2.59" transform="translate(741.4 398.44) rotate(180)" style="fill:#407BFF"></rect><rect x="227.98" y="111.44" width="144.32" height="304.79" rx="14.62" transform="translate(600.29 527.68) rotate(180)" style="fill:#407BFF"></rect><rect x="227.98" y="111.44" width="144.32" height="304.79" rx="14.62" transform="translate(600.29 527.68) rotate(180)" style="fill:#fff;opacity:0.6000000000000001"></rect><circle cx="300.14" cy="397.65" r="8.23" style="fill:#407BFF;opacity:0.30000000000000004"></circle><rect x="231.46" y="134.73" width="137.36" height="248.63" transform="translate(600.29 518.09) rotate(180)" style="fill:#fff"></rect><rect x="275.19" y="179.79" width="49.91" height="49.91" rx="4.22" style="fill:#407BFF"></rect><rect x="283.29" y="179.79" width="1" height="18" style="fill:#fff"></rect><path d="M283.79,200.83a1.77,1.77,0,1,1,1.77-1.77A1.78,1.78,0,0,1,283.79,200.83Zm0-2.54a.77.77,0,1,0,.77.77A.77.77,0,0,0,283.79,198.29Z" style="fill:#fff"></path><path d="M289.09,214.79a1.78,1.78,0,1,1,1.77-1.77A1.77,1.77,0,0,1,289.09,214.79Zm0-2.55a.78.78,0,1,0,.77.78A.77.77,0,0,0,289.09,212.24Z" style="fill:#fff"></path><path d="M311,226.24a1.77,1.77,0,1,1,1.77-1.77A1.77,1.77,0,0,1,311,226.24Zm0-2.54a.77.77,0,1,0,0,1.54.77.77,0,0,0,0-1.54Z" style="fill:#fff"></path><path d="M294.57,204.49a1.77,1.77,0,1,1,1.77-1.77A1.77,1.77,0,0,1,294.57,204.49Zm0-2.54a.77.77,0,0,0,0,1.54.77.77,0,1,0,0-1.54Z" style="fill:#fff"></path><polygon points="284.11 229.7 283.11 229.7 283.11 206.73 288.59 201.25 288.59 179.79 289.59 179.79 289.59 201.66 284.11 207.14 284.11 229.7" style="fill:#fff"></polygon><polygon points="295.07 229.7 294.07 229.7 294.07 214.08 299.55 208.6 299.55 179.79 300.55 179.79 300.55 209.01 295.07 214.49 295.07 229.7" style="fill:#fff"></polygon><polygon points="311.51 223.2 310.51 223.2 310.51 203.44 305.03 197.96 305.03 179.79 306.03 179.79 306.03 197.54 311.51 203.02 311.51 223.2" style="fill:#fff"></polygon><path d="M316.49,209.22a1.77,1.77,0,1,1,1.77-1.77A1.77,1.77,0,0,1,316.49,209.22Zm0-2.54a.77.77,0,1,0,0,1.54.77.77,0,1,0,0-1.54Z" style="fill:#fff"></path><polygon points="316.99 206.18 315.99 206.18 315.99 203.44 310.51 197.96 310.51 179.79 311.51 179.79 311.51 197.54 316.99 203.02 316.99 206.18" style="fill:#fff"></polygon><rect x="294.07" y="179.79" width="1" height="21.66" style="fill:#fff"></rect><rect x="288.59" y="214.29" width="1" height="15.42" style="fill:#fff"></rect><path d="M300.05,219.36a1.77,1.77,0,1,1,1.77-1.77A1.77,1.77,0,0,1,300.05,219.36Zm0-2.54a.77.77,0,0,0,0,1.54.77.77,0,0,0,0-1.54Z" style="fill:#fff"></path><rect x="299.55" y="218.86" width="1" height="10.84" style="fill:#fff"></rect><path d="M316.49,215.36a1.77,1.77,0,1,1,1.77-1.77A1.77,1.77,0,0,1,316.49,215.36Zm0-2.54a.77.77,0,1,0,0,1.54.77.77,0,0,0,0-1.54Z" style="fill:#fff"></path><rect x="315.99" y="214.86" width="1" height="14.84" style="fill:#fff"></rect><polygon points="311.4 194.99 310.7 194.28 315.99 188.98 315.99 179.79 316.99 179.79 316.99 189.4 311.4 194.99" style="fill:#fff"></polygon><path d="M305.53,209.75A1.77,1.77,0,1,1,307.3,208,1.77,1.77,0,0,1,305.53,209.75Zm0-2.54a.77.77,0,1,0,0,1.54.77.77,0,0,0,0-1.54Z" style="fill:#fff"></path><rect x="305.03" y="209.25" width="1" height="20.45" style="fill:#fff"></rect><path d="M345.91,303.66H254.38V286.21h91.53Zm-90.53-1h89.53V287.21H255.38Z" style="fill:#407BFF"></path><rect x="257.38" y="289.64" width="5.42" height="10.59" style="fill:#407BFF"></rect><rect x="264.47" y="289.64" width="5.42" height="10.59" style="fill:#407BFF"></rect><rect x="271.55" y="289.64" width="5.42" height="10.59" style="fill:#407BFF"></rect><rect x="278.64" y="289.64" width="5.42" height="10.59" style="fill:#407BFF;opacity:0.9"></rect><rect x="285.73" y="289.64" width="5.42" height="10.59" style="fill:#407BFF;opacity:0.7000000000000001"></rect><rect x="292.81" y="289.64" width="5.42" height="10.59" style="fill:#407BFF;opacity:0.5"></rect><rect x="299.9" y="289.64" width="5.42" height="10.59" style="fill:#407BFF;opacity:0.30000000000000004"></rect><path d="M270.67,265.49h2.65V272h4.14v2.11h-6.79Z" style="fill:#407BFF"></path><path d="M278.13,269.79a4.08,4.08,0,0,1,4.44-4.45,4.47,4.47,0,0,1,3.3,1.16,4.33,4.33,0,0,1,1.16,3.22,5.24,5.24,0,0,1-.51,2.47,3.58,3.58,0,0,1-1.46,1.5,4.83,4.83,0,0,1-2.39.54,5.43,5.43,0,0,1-2.4-.47,3.56,3.56,0,0,1-1.55-1.46A4.91,4.91,0,0,1,278.13,269.79Zm2.65,0a2.89,2.89,0,0,0,.49,1.87,1.82,1.82,0,0,0,2.64,0,3.17,3.17,0,0,0,.47-2,2.72,2.72,0,0,0-.49-1.78,1.69,1.69,0,0,0-1.33-.56,1.6,1.6,0,0,0-1.29.57A2.92,2.92,0,0,0,280.78,269.8Z" style="fill:#407BFF"></path><path d="M293.33,272.66h-3l-.42,1.42h-2.71l3.23-8.59h2.89l3.23,8.59h-2.78Zm-.55-1.85-.95-3.09-.94,3.09Z" style="fill:#407BFF"></path><path d="M297.42,265.49h3.94a4.76,4.76,0,0,1,1.89.32,3,3,0,0,1,1.18.91,3.6,3.6,0,0,1,.68,1.37,6.48,6.48,0,0,1,.21,1.67,5.74,5.74,0,0,1-.31,2.13,3.5,3.5,0,0,1-.87,1.27,2.83,2.83,0,0,1-1.2.69,6.41,6.41,0,0,1-1.58.23h-3.94Zm2.65,1.95v4.69h.65a2.65,2.65,0,0,0,1.19-.19,1.22,1.22,0,0,0,.55-.64,4.1,4.1,0,0,0,.2-1.49,2.88,2.88,0,0,0-.45-1.87,1.85,1.85,0,0,0-1.47-.5Z" style="fill:#407BFF"></path><path d="M306.82,265.49h2.66v8.59h-2.66Z" style="fill:#407BFF"></path><path d="M311.41,265.49h2.47l3.24,4.75v-4.75h2.5v8.59h-2.5l-3.22-4.72v4.72h-2.49Z" style="fill:#407BFF"></path><path d="M325.7,271v-1.79h4.1v3.66a8.48,8.48,0,0,1-2.08,1.1,7.17,7.17,0,0,1-2.15.29,5.29,5.29,0,0,1-2.49-.52,3.57,3.57,0,0,1-1.49-1.56,5,5,0,0,1-.53-2.36,4.91,4.91,0,0,1,.58-2.45,3.76,3.76,0,0,1,1.69-1.58,5.52,5.52,0,0,1,2.35-.42,6.64,6.64,0,0,1,2.13.26,2.73,2.73,0,0,1,1.18.8,3.59,3.59,0,0,1,.7,1.38l-2.56.45a1.42,1.42,0,0,0-.54-.74,1.67,1.67,0,0,0-1-.26,1.74,1.74,0,0,0-1.4.61,2.94,2.94,0,0,0-.51,1.92,3,3,0,0,0,.52,2,1.84,1.84,0,0,0,1.46.6,3,3,0,0,0,.85-.13,5.38,5.38,0,0,0,.93-.44V271Z" style="fill:#407BFF"></path><rect x="298.55" y="323.45" width="3" height="18.27" style="fill:#407BFF"></rect><polygon points="307.41 335.75 306.09 334.53 300.05 341.03 294.01 334.53 292.69 335.75 300.05 343.67 307.41 335.75" style="fill:#407BFF"></polygon><rect x="287.81" y="346.39" width="24.47" height="3" style="fill:#407BFF"></rect><path d="M319.48,124.4a2.71,2.71,0,1,0-2.7,2.7A2.7,2.7,0,0,0,319.48,124.4Z" style="fill:#407BFF;opacity:0.30000000000000004"></path><rect x="282.26" y="121.69" width="27.88" height="5.41" rx="2.7" style="fill:#407BFF;opacity:0.30000000000000004"></rect></g></svg>
