<?xml version="1.0" encoding="utf-8"?>
<svg xmlns="http://www.w3.org/2000/svg" style="margin: auto; background: none; display: block; shape-rendering: auto;" width="280" height="250" preserveAspectRatio="xMidYMid">
<style type="text/css">
  text {
    text-anchor: middle; font-size: 52px; opacity: 0;
  }
</style>
<g style="transform-origin: 140px 125px; transform: scale(0.65);">
<g transform="translate(140,125)">
  <g transform="translate(0,0)"><g class="path" style="transform: scale(0.91); transform-origin: -165.52px 2.72073px; animation: 1s linear -0.6s infinite normal forwards running breath-6432df2b-984b-4523-9414-fc92888c9d7d;"><path d="M24.72 15.52L24.72 15.52L24.72 15.52Q33.12 15.52 37.80 12.08L37.80 12.08L37.80 12.08Q42.48 8.64 42.48 2.96L42.48 2.96L42.48 2.96Q42.48-1.12 40.44-4.24L40.44-4.24L40.44-4.24Q38.40-7.36 35.36-9.40L35.36-9.40L35.36-9.40Q32.32-11.44 29.16-13.44L29.16-13.44L29.16-13.44Q26-15.44 23.28-18.48L23.28-18.48L23.28-18.48Q20.56-21.52 19.68-25.36L19.68-25.36L19.68-25.36Q12.40-27.52 10.08-34.40L10.08-34.40L10.08-34.40Q9.20-37.04 9.20-39.92L9.20-39.92L9.20-39.92Q9.20-42.80 10.08-45.92L10.08-45.92L10.08-45.92Q11.92-52.08 16.08-55.20L16.08-55.20L16.96-53.92L16.96-53.92Q13.20-51.20 11.52-45.44L11.52-45.44L11.52-45.44Q10.72-42.56 10.72-39.92L10.72-39.92L10.72-39.92Q10.72-37.28 11.52-34.88L11.52-34.88L11.52-34.88Q13.44-29.04 19.44-27.04L19.44-27.04L19.44-27.04Q19.28-27.92 19.28-29.76L19.28-29.76L19.28-29.76Q19.28-40.24 26.88-46.72L26.88-46.72L26.88-46.72Q34.48-53.20 45.44-53.20L45.44-53.20L45.44-53.20Q52.64-53.20 56.96-49.28L56.96-49.28L56.96-49.28Q60.64-45.84 60.64-40.84L60.64-40.84L60.64-40.84Q60.64-35.84 57.28-32.20L57.28-32.20L57.28-32.20Q53.92-28.56 48.24-28.56L48.24-28.56L48.24-28.56Q45.12-28.56 43.12-29.76L43.12-29.76L43.12-29.76Q39.04-26.64 33.44-25.28L33.44-25.28L33.44-25.28Q35.04-23.76 40.92-19.68L40.92-19.68L40.92-19.68Q46.80-15.60 49.72-11.88L49.72-11.88L49.72-11.88Q52.64-8.16 52.64-3.20L52.64-3.20L52.64-3.20Q52.64 5.92 45.56 11.60L45.56 11.60L45.56 11.60Q38.48 17.28 27.64 17.28L27.64 17.28L27.64 17.28Q16.80 17.28 11.28 12.48L11.28 12.48L11.28 12.48Q6.48 8.40 6.48 2.52L6.48 2.52L6.48 2.52Q6.48-3.36 10.28-7.56L10.28-7.56L10.28-7.56Q14.08-11.76 19.76-11.76L19.76-11.76L19.76-11.76Q25.44-11.76 28.16-9.24L28.16-9.24L28.16-9.24Q30.88-6.72 30.88-3.12L30.88-3.12L30.88-3.12Q30.88 0.48 28.68 3.28L28.68 3.28L28.68 3.28Q26.48 6.08 22.96 6.08L22.96 6.08L22.96 6.08Q19.44 6.08 17.36 3.84L17.36 3.84L17.36 3.84Q15.44 1.92 15.20-0.96L15.20-0.96L15.20-0.96Q15.12-1.76 15.20-1.92L15.20-1.92L16.72-1.84L16.72-1.84Q16.64 0.96 18.48 2.80L18.48 2.80L18.48 2.80Q20 4.48 22.92 4.48L22.92 4.48L22.92 4.48Q25.84 4.48 27.60 2.20L27.60 2.20L27.60 2.20Q29.36-0.08 29.36-3.08L29.36-3.08L29.36-3.08Q29.36-6.08 27.28-7.92L27.28-7.92L27.28-7.92Q24.96-10.24 19.84-10.24L19.84-10.24L19.84-10.24Q14.72-10.24 11.36-6.52L11.36-6.52L11.36-6.52Q8-2.80 8 2.44L8 2.44L8 2.44Q8 7.68 12.32 11.36L12.32 11.36L12.32 11.36Q14.88 13.60 17.56 14.56L17.56 14.56L17.56 14.56Q20.24 15.52 24.72 15.52zM38.32-39.52L38.32-39.52L38.32-39.52Q38.32-43.04 40.12-45.36L40.12-45.36L40.12-45.36Q41.92-47.68 45.04-47.68L45.04-47.68L45.04-47.68Q50.40-47.68 50.40-41.80L50.40-41.80L50.40-41.80Q50.40-35.92 44.56-30.72L44.56-30.72L44.56-30.72Q46.32-29.92 48.24-29.92L48.24-29.92L48.24-29.92Q53.20-29.92 56.16-33.16L56.16-33.16L56.16-33.16Q59.12-36.40 59.12-40.76L59.12-40.76L59.12-40.76Q59.12-45.12 55.92-48.16L55.92-48.16L55.92-48.16Q52-51.68 45.60-51.68L45.60-51.68L45.60-51.68Q39.20-51.68 34.72-48.56L34.72-48.56L34.72-48.56Q27.76-43.60 27.76-35.76L27.76-35.76L27.76-35.76Q27.76-29.28 32.08-26.32L32.08-26.32L32.08-26.32Q37.44-27.52 42-30.64L42-30.64L42-30.64Q38.32-33.92 38.32-39.52zM44.96-46.24L44.96-46.24L44.96-46.24Q42.56-46.24 41.24-44.40L41.24-44.40L41.24-44.40Q39.92-42.56 39.92-39.52L39.92-39.52L39.92-39.52Q39.92-34.32 43.20-31.60L43.20-31.60L43.20-31.60Q45.60-33.28 47.20-36.16L47.20-36.16L47.20-36.16Q48.80-39.04 48.80-41.84L48.80-41.84L48.80-41.84Q48.80-46.24 44.96-46.24" fill="#3dccb2" stroke="none" stroke-width="none" transform="translate(-199.08004188537598,21.680727483575996)" style="fill: rgb(61, 204, 178);"></path></g><g class="path" style="transform: scale(0.91); transform-origin: -119.92px 6.48073px; animation: 1s linear -0.54s infinite normal forwards running breath-6432df2b-984b-4523-9414-fc92888c9d7d;"><path d="M66.48-29.52L66.48-29.52L66.48-29.52Q64.56-29.52 62.48-27.28L62.48-27.28L61.28-28.24L61.28-28.24Q61.84-29.36 63.76-30.24L63.76-30.24L63.76-30.24Q65.68-31.12 68-31.12L68-31.12L68-31.12Q75.28-31.12 75.28-24.56L75.28-24.56L75.28-24.56Q75.28-21.76 73.84-14.56L73.84-14.56L73.84-14.56Q72.40-7.36 72.40-5.12L72.40-5.12L72.40-5.12Q72.40-1.68 75.68-1.68L75.68-1.68L75.68-1.68Q78-1.68 80.20-4.40L80.20-4.40L80.20-4.40Q82.40-7.12 84-11.92L84-11.92L87.36-30.40L87.36-30.40Q93.28-30.40 96-30.88L96-30.88L97.04-31.12L91.68-0.88L91.68-0.88Q94.08-1.12 95.68-3.12L95.68-3.12L96.88-2.16L96.88-2.16Q94.48 0.72 90.88 0.72L90.88 0.72L90.88 0.72Q87.28 0.72 85.28-1.04L85.28-1.04L85.28-1.04Q83.28-2.80 83.20-6L83.20-6L83.20-6Q79.84 0.72 73.28 0.72L73.28 0.72L73.28 0.72Q68.56 0.72 65.92-1.96L65.92-1.96L65.92-1.96Q63.28-4.64 63.28-9.36L63.28-9.36L63.28-9.36Q63.28-11.84 64.80-18.92L64.80-18.92L64.80-18.92Q66.32-26 66.48-29.52" fill="#3dccb2" stroke="none" stroke-width="none" transform="translate(-199.08004188537598,21.680727483575996)" style="fill: rgb(59, 140, 241);"></path></g><g class="path" style="transform: scale(0.91); transform-origin: -81.3201px 11.7607px; animation: 1s linear -0.48s infinite normal forwards running breath-6432df2b-984b-4523-9414-fc92888c9d7d;"><path d="M117.44 0.64L117.44 0.64L117.44 0.64Q113.76 0.64 111.60-1.04L111.60-1.04L109.20 11.84L99.68 11.84L107.20-30.08L107.20-30.08Q104.80-29.84 103.20-27.84L103.20-27.84L102-28.80L102-28.80Q104.40-31.68 107.96-31.68L107.96-31.68L107.96-31.68Q111.52-31.68 113.52-29.96L113.52-29.96L113.52-29.96Q115.52-28.24 115.68-25.12L115.68-25.12L115.68-25.12Q119.20-31.12 124.64-31.12L124.64-31.12L124.64-31.12Q130.08-31.12 132.96-28.04L132.96-28.04L132.96-28.04Q135.84-24.96 135.84-19.60L135.84-19.60L135.84-19.60Q135.84-10.16 130.72-4.76L130.72-4.76L130.72-4.76Q125.60 0.64 117.44 0.64zM115.04-19.92L112.16-4.24L112.16-4.24Q113.52-1.20 117.32-1.20L117.32-1.20L117.32-1.20Q121.12-1.20 123.96-7.60L123.96-7.60L123.96-7.60Q126.80-14 126.80-22.88L126.80-22.88L126.80-22.88Q126.80-26.56 126.04-27.92L126.04-27.92L126.04-27.92Q125.28-29.28 123.28-29.28L123.28-29.28L123.28-29.28Q121.28-29.28 119.16-26.88L119.16-26.88L119.16-26.88Q117.04-24.48 116.08-22.36L116.08-22.36L116.08-22.36Q115.12-20.24 115.12-19.92L115.12-19.92L115.04-19.92" fill="#3dccb2" stroke="none" stroke-width="none" transform="translate(-199.08004188537598,21.680727483575996)" style="fill: rgb(61, 204, 178);"></path></g><g class="path" style="transform: scale(0.91); transform-origin: -45.5601px 6.48073px; animation: 1s linear -0.42s infinite normal forwards running breath-6432df2b-984b-4523-9414-fc92888c9d7d;"><path d="M157.04-31.12L157.04-31.12L157.04-31.12Q167.20-31.12 167.20-23.04L167.20-23.04L167.20-23.04Q167.20-18 162.44-15.40L162.44-15.40L162.44-15.40Q157.68-12.80 148.88-12.72L148.88-12.72L148.88-12.72Q148.72-9.84 148.72-8.16L148.72-8.16L148.72-8.16Q148.72-4.56 150.36-2.84L150.36-2.84L150.36-2.84Q152-1.12 154.48-1.12L154.48-1.12L154.48-1.12Q156.96-1.12 159-2.08L159-2.08L159-2.08Q161.04-3.04 162.24-4.36L162.24-4.36L162.24-4.36Q163.44-5.68 164.32-7.12L164.32-7.12L164.32-7.12Q165.92-9.76 165.92-10.48L165.92-10.48L167.36-9.84L167.36-9.84Q167.12-8.56 165.92-6.44L165.92-6.44L165.92-6.44Q164.72-4.32 163.28-2.96L163.28-2.96L163.28-2.96Q161.84-1.60 159.04-0.44L159.04-0.44L159.04-0.44Q156.24 0.72 152.80 0.72L152.80 0.72L152.80 0.72Q146.32 0.72 143-2.36L143-2.36L143-2.36Q139.68-5.44 139.68-10.80L139.68-10.80L139.68-10.80Q139.68-20.32 144.40-25.72L144.40-25.72L144.40-25.72Q149.12-31.12 157.04-31.12zM165.20-23.04L165.20-23.04Q165.20-25.68 163.64-27.40L163.64-27.40L163.64-27.40Q162.08-29.12 159-29.12L159-29.12L159-29.12Q155.92-29.12 153-25.44L153-25.44L153-25.44Q150.08-21.76 149.12-14.56L149.12-14.56L149.12-14.56Q165.20-14.64 165.20-23.04L165.20-23.04" fill="#3dccb2" stroke="none" stroke-width="none" transform="translate(-199.08004188537598,21.680727483575996)" style="fill: rgb(59, 140, 241);"></path></g><g class="path" style="transform: scale(0.91); transform-origin: -12.5201px 6.12073px; animation: 1s linear -0.36s infinite normal forwards running breath-6432df2b-984b-4523-9414-fc92888c9d7d;"><path d="M173.20-27.28L172.00-28.24L172.00-28.24Q174.40-31.12 178.04-31.12L178.04-31.12L178.04-31.12Q181.68-31.12 183.68-29.28L183.68-29.28L183.68-29.28Q185.68-27.44 185.68-24.08L185.68-24.08L185.68-23.60L185.68-23.60Q189.28-31.12 195.04-31.12L195.04-31.12L195.04-31.12Q201.20-31.12 201.20-24.72L201.20-24.72L201.20-24.72Q201.20-22.08 199.44-19.12L199.44-19.12L199.44-19.12Q197.68-16.16 195.92-13.48L195.92-13.48L195.92-13.48Q194.16-10.80 194.16-8.72L194.16-8.72L192.24-8.72L192.24-8.72Q192.24-11.68 195.68-16.72L195.68-16.72L195.68-16.72Q199.12-21.76 199.12-24.52L199.12-24.52L199.12-24.52Q199.12-27.28 198.04-28.28L198.04-28.28L198.04-28.28Q196.96-29.28 194.84-29.28L194.84-29.28L194.84-29.28Q192.72-29.28 190.68-27.44L190.68-27.44L190.68-27.44Q188.64-25.60 187.28-22.80L187.28-22.80L187.28-22.80Q185.12-18.64 184.40-16L184.40-16L184.40-15.92L181.52 0L171.92 0L177.20-29.52L177.20-29.52Q174.80-29.28 173.20-27.28L173.20-27.28" fill="#3dccb2" stroke="none" stroke-width="none" transform="translate(-199.08004188537598,21.680727483575996)" style="fill: rgb(61, 204, 178);"></path></g><g class="path" style="transform: scale(0.91); transform-origin: 11.9199px 6.48073px; animation: 1s linear -0.3s infinite normal forwards running breath-6432df2b-984b-4523-9414-fc92888c9d7d;"><path d="M217.68-2.16L217.68-2.16Q215.28 0.72 211.68 0.72L211.68 0.72L211.68 0.72Q208.08 0.72 206.04-1.12L206.04-1.12L206.04-1.12Q204.00-2.96 204.00-5.92L204.00-5.92L204.00-5.92Q204.00-6.96 205.28-14.64L205.28-14.64L207.92-28.96L204.56-28.96L204.72-30.40L208.16-30.40L208.16-30.40Q214.08-30.40 216.88-30.88L216.88-30.88L218.00-31.12L212.48-0.88L212.48-0.88Q214.88-1.12 216.48-3.12L216.48-3.12L217.68-2.16" fill="#3dccb2" stroke="none" stroke-width="none" transform="translate(-199.08004188537598,21.680727483575996)" style="fill: rgb(59, 140, 241);"></path></g><g class="path" style="transform: scale(0.91); transform-origin: 15.6799px -21.2393px; animation: 1s linear -0.24s infinite normal forwards running breath-6432df2b-984b-4523-9414-fc92888c9d7d;"><path d="M210.64-38.80L210.64-38.80L210.64-38.80Q208.96-40.48 208.96-42.88L208.96-42.88L208.96-42.88Q208.96-45.28 210.64-47L210.64-47L210.64-47Q212.32-48.72 214.72-48.72L214.72-48.72L214.72-48.72Q217.12-48.72 218.84-47L218.84-47L218.84-47Q220.56-45.28 220.56-42.88L220.56-42.88L220.56-42.88Q220.56-40.48 218.84-38.80L218.84-38.80L218.84-38.80Q217.12-37.12 214.72-37.12L214.72-37.12L214.72-37.12Q212.32-37.12 210.64-38.80" fill="#3dccb2" stroke="none" stroke-width="none" transform="translate(-199.08004188537598,21.680727483575996)" style="fill: rgb(61, 204, 178);"></path></g><g class="path" style="transform: scale(0.91); transform-origin: 38.8399px 6.48073px; animation: 1s linear -0.18s infinite normal forwards running breath-6432df2b-984b-4523-9414-fc92888c9d7d;"><path d="M234.80 0.72L234.80 0.72Q228.64 0.72 225.44-2.36L225.44-2.36L225.44-2.36Q222.24-5.44 222.24-10.12L222.24-10.12L222.24-10.12Q222.24-14.80 223.08-18.12L223.08-18.12L223.08-18.12Q223.92-21.44 225.84-24.52L225.84-24.52L225.84-24.52Q227.76-27.60 231.64-29.36L231.64-29.36L231.64-29.36Q235.52-31.12 241.32-31.12L241.32-31.12L241.32-31.12Q247.12-31.12 250.36-28.04L250.36-28.04L250.36-28.04Q253.60-24.96 253.60-19.60L253.60-19.60L253.60-19.60Q253.60-10.48 248.76-4.88L248.76-4.88L248.76-4.88Q243.92 0.72 234.80 0.72L234.80 0.72zM231.28-7.52L231.28-7.52L231.28-7.52Q231.28-1.12 235.00-1.12L235.00-1.12L235.00-1.12Q238.72-1.12 241.64-7.56L241.64-7.56L241.64-7.56Q244.56-14 244.56-22.88L244.56-22.88L244.56-22.88Q244.56-29.60 240.92-29.60L240.92-29.60L240.92-29.60Q237.28-29.60 234.28-23.48L234.28-23.48L234.28-23.48Q231.28-17.36 231.28-7.52" fill="#3dccb2" stroke="none" stroke-width="none" transform="translate(-199.08004188537598,21.680727483575996)" style="fill: rgb(59, 140, 241);"></path></g><g class="path" style="transform: scale(0.91); transform-origin: 73.4799px 6.12073px; animation: 1s linear -0.12s infinite normal forwards running breath-6432df2b-984b-4523-9414-fc92888c9d7d;"><path d="M259.20-27.28L258-28.24L258-28.24Q260.40-31.12 264.04-31.12L264.04-31.12L264.04-31.12Q267.68-31.12 269.68-29.28L269.68-29.28L269.68-29.28Q271.68-27.44 271.68-24.08L271.68-24.08L271.68-23.60L271.68-23.60Q275.28-31.12 281.04-31.12L281.04-31.12L281.04-31.12Q287.20-31.12 287.20-24.72L287.20-24.72L287.20-24.72Q287.20-22.08 285.44-19.12L285.44-19.12L285.44-19.12Q283.68-16.16 281.92-13.48L281.92-13.48L281.92-13.48Q280.16-10.80 280.16-8.72L280.16-8.72L278.24-8.72L278.24-8.72Q278.24-11.68 281.68-16.72L281.68-16.72L281.68-16.72Q285.12-21.76 285.12-24.52L285.12-24.52L285.12-24.52Q285.12-27.28 284.04-28.28L284.04-28.28L284.04-28.28Q282.96-29.28 280.84-29.28L280.84-29.28L280.84-29.28Q278.72-29.28 276.68-27.44L276.68-27.44L276.68-27.44Q274.64-25.60 273.28-22.80L273.28-22.80L273.28-22.80Q271.12-18.64 270.40-16L270.40-16L270.40-15.92L267.52 0L257.92 0L263.20-29.52L263.20-29.52Q260.80-29.28 259.20-27.28L259.20-27.28" fill="#3dccb2" stroke="none" stroke-width="none" transform="translate(-199.08004188537598,21.680727483575996)" style="fill: rgb(61, 204, 178);"></path></g><g class="path" style="transform: scale(0.91); transform-origin: 118.32px 1.40073px; animation: 1s linear -0.06s infinite normal forwards running breath-6432df2b-984b-4523-9414-fc92888c9d7d;"><path d="M300.16-11.56L300.16-11.56L300.16-11.56Q300.16-2.08 304.36 2.08L304.36 2.08L304.36 2.08Q308.56 6.24 313.92 6.24L313.92 6.24L313.92 6.24Q321.20 6.24 327.80 1.40L327.80 1.40L327.80 1.40Q334.40-3.44 338.16-10.76L338.16-10.76L338.16-10.76Q341.92-18.08 341.92-25.76L341.92-25.76L341.92-25.76Q341.92-33.44 338.48-37.80L338.48-37.80L338.48-37.80Q335.04-42.16 328.72-42.16L328.72-42.16L328.72-42.16Q321.12-42.16 316.80-36.88L316.80-36.88L316.80-36.88Q312.48-31.60 312.48-24.48L312.48-24.48L312.48-24.48Q312.48-21.36 313.44-19.04L313.44-19.04L313.44-19.04Q314.40-16.72 315.60-15.60L315.60-15.60L315.60-15.60Q316.80-14.48 318.32-13.76L318.32-13.76L318.32-13.76Q320.32-12.80 321.76-12.80L321.76-12.80L321.68-11.20L321.68-11.20Q320.32-11.20 318.20-12.16L318.20-12.16L318.20-12.16Q316.08-13.12 314.64-14.40L314.64-14.40L314.64-14.40Q313.20-15.68 312.04-18.32L312.04-18.32L312.04-18.32Q310.88-20.96 310.88-24.48L310.88-24.48L310.88-24.48Q310.88-32.24 315.64-37.96L315.64-37.96L315.64-37.96Q320.40-43.68 328.72-43.68L328.72-43.68L328.72-43.68Q335.68-43.68 339.60-38.88L339.60-38.88L339.60-38.88Q343.52-34.08 343.52-25.52L343.52-25.52L343.52-25.52Q343.52-19.52 341.16-13.48L341.16-13.48L341.16-13.48Q338.80-7.44 334.76-2.64L334.76-2.64L334.76-2.64Q330.72 2.16 324.68 5.20L324.68 5.20L324.68 5.20Q318.64 8.24 311.84 8.24L311.84 8.24L311.84 8.24Q302.16 8.24 296.72 2.36L296.72 2.36L296.72 2.36Q291.28-3.52 291.28-13.92L291.28-13.92L291.28-13.92Q291.28-28.24 300.40-38.24L300.40-38.24L300.40-38.24Q309.52-48.24 323.12-48.80L323.12-48.80L323.20-47.20L323.20-47.20Q318-47.04 313.88-44.60L313.88-44.60L313.88-44.60Q309.76-42.16 307.24-38.44L307.24-38.44L307.24-38.44Q304.72-34.72 303.04-29.76L303.04-29.76L303.04-29.76Q300.16-21.04 300.16-11.56" fill="#3dccb2" stroke="none" stroke-width="none" transform="translate(-199.08004188537598,21.680727483575996)" style="fill: rgb(59, 140, 241);"></path></g><g class="path" style="transform: scale(0.91); transform-origin: 178.48px 2.72073px; animation: 1s linear 0s infinite normal forwards running breath-6432df2b-984b-4523-9414-fc92888c9d7d;"><path d="M368.72 15.52L368.72 15.52L368.72 15.52Q377.12 15.52 381.80 12.08L381.80 12.08L381.80 12.08Q386.48 8.64 386.48 2.96L386.48 2.96L386.48 2.96Q386.48-1.12 384.44-4.24L384.44-4.24L384.44-4.24Q382.40-7.36 379.36-9.40L379.36-9.40L379.36-9.40Q376.32-11.44 373.16-13.44L373.16-13.44L373.16-13.44Q370-15.44 367.28-18.48L367.28-18.48L367.28-18.48Q364.56-21.52 363.68-25.36L363.68-25.36L363.68-25.36Q356.40-27.52 354.08-34.40L354.08-34.40L354.08-34.40Q353.20-37.04 353.20-39.92L353.20-39.92L353.20-39.92Q353.20-42.80 354.08-45.92L354.08-45.92L354.08-45.92Q355.92-52.08 360.08-55.20L360.08-55.20L360.96-53.92L360.96-53.92Q357.20-51.20 355.52-45.44L355.52-45.44L355.52-45.44Q354.72-42.56 354.72-39.92L354.72-39.92L354.72-39.92Q354.72-37.28 355.52-34.88L355.52-34.88L355.52-34.88Q357.44-29.04 363.44-27.04L363.44-27.04L363.44-27.04Q363.28-27.92 363.28-29.76L363.28-29.76L363.28-29.76Q363.28-40.24 370.88-46.72L370.88-46.72L370.88-46.72Q378.48-53.20 389.44-53.20L389.44-53.20L389.44-53.20Q396.64-53.20 400.96-49.28L400.96-49.28L400.96-49.28Q404.64-45.84 404.64-40.84L404.64-40.84L404.64-40.84Q404.64-35.84 401.28-32.20L401.28-32.20L401.28-32.20Q397.92-28.56 392.24-28.56L392.24-28.56L392.24-28.56Q389.12-28.56 387.12-29.76L387.12-29.76L387.12-29.76Q383.04-26.64 377.44-25.28L377.44-25.28L377.44-25.28Q379.04-23.76 384.92-19.68L384.92-19.68L384.92-19.68Q390.80-15.60 393.72-11.88L393.72-11.88L393.72-11.88Q396.64-8.16 396.64-3.20L396.64-3.20L396.64-3.20Q396.64 5.92 389.56 11.60L389.56 11.60L389.56 11.60Q382.48 17.28 371.64 17.28L371.64 17.28L371.64 17.28Q360.80 17.28 355.28 12.48L355.28 12.48L355.28 12.48Q350.48 8.40 350.48 2.52L350.48 2.52L350.48 2.52Q350.48-3.36 354.28-7.56L354.28-7.56L354.28-7.56Q358.08-11.76 363.76-11.76L363.76-11.76L363.76-11.76Q369.44-11.76 372.16-9.24L372.16-9.24L372.16-9.24Q374.88-6.72 374.88-3.12L374.88-3.12L374.88-3.12Q374.88 0.48 372.68 3.28L372.68 3.28L372.68 3.28Q370.48 6.08 366.96 6.08L366.96 6.08L366.96 6.08Q363.44 6.08 361.36 3.84L361.36 3.84L361.36 3.84Q359.44 1.92 359.20-0.96L359.20-0.96L359.20-0.96Q359.12-1.76 359.20-1.92L359.20-1.92L360.72-1.84L360.72-1.84Q360.64 0.96 362.48 2.80L362.48 2.80L362.48 2.80Q364 4.48 366.92 4.48L366.92 4.48L366.92 4.48Q369.84 4.48 371.60 2.20L371.60 2.20L371.60 2.20Q373.36-0.08 373.36-3.08L373.36-3.08L373.36-3.08Q373.36-6.08 371.28-7.92L371.28-7.92L371.28-7.92Q368.96-10.24 363.84-10.24L363.84-10.24L363.84-10.24Q358.72-10.24 355.36-6.52L355.36-6.52L355.36-6.52Q352-2.80 352 2.44L352 2.44L352 2.44Q352 7.68 356.32 11.36L356.32 11.36L356.32 11.36Q358.88 13.60 361.56 14.56L361.56 14.56L361.56 14.56Q364.24 15.52 368.72 15.52zM382.32-39.52L382.32-39.52L382.32-39.52Q382.32-43.04 384.12-45.36L384.12-45.36L384.12-45.36Q385.92-47.68 389.04-47.68L389.04-47.68L389.04-47.68Q394.40-47.68 394.40-41.80L394.40-41.80L394.40-41.80Q394.40-35.92 388.56-30.72L388.56-30.72L388.56-30.72Q390.32-29.92 392.24-29.92L392.24-29.92L392.24-29.92Q397.20-29.92 400.16-33.16L400.16-33.16L400.16-33.16Q403.12-36.40 403.12-40.76L403.12-40.76L403.12-40.76Q403.12-45.12 399.92-48.16L399.92-48.16L399.92-48.16Q396-51.68 389.60-51.68L389.60-51.68L389.60-51.68Q383.20-51.68 378.72-48.56L378.72-48.56L378.72-48.56Q371.76-43.60 371.76-35.76L371.76-35.76L371.76-35.76Q371.76-29.28 376.08-26.32L376.08-26.32L376.08-26.32Q381.44-27.52 386-30.64L386-30.64L386-30.64Q382.32-33.92 382.32-39.52zM388.96-46.24L388.96-46.24L388.96-46.24Q386.56-46.24 385.24-44.40L385.24-44.40L385.24-44.40Q383.92-42.56 383.92-39.52L383.92-39.52L383.92-39.52Q383.92-34.32 387.20-31.60L387.20-31.60L387.20-31.60Q389.60-33.28 391.20-36.16L391.20-36.16L391.20-36.16Q392.80-39.04 392.80-41.84L392.80-41.84L392.80-41.84Q392.80-46.24 388.96-46.24" fill="#3dccb2" stroke="none" stroke-width="none" transform="translate(-199.08004188537598,21.680727483575996)" style="fill: rgb(61, 204, 178);"></path></g></g>
</g>
</g>
<style id="breath-6432df2b-984b-4523-9414-fc92888c9d7d" data-anikit="">@keyframes breath-6432df2b-984b-4523-9414-fc92888c9d7d
{
  0% {
    animation-timing-function: cubic-bezier(0.9647,0.2413,-0.0705,0.7911);
    transform: scale(0.9099999999999999);
  }
  51% {
    animation-timing-function: cubic-bezier(0.9226,0.2631,-0.0308,0.7628);
    transform: scale(1.02994);
  }
  100% {
    transform: scale(0.9099999999999999);
  }
}</style></svg>